<svg id="Camada_1" data-name="Camada 1" xmlns="http://www.w3.org/2000/svg" viewBox="0 0 30 30"><defs><style>.cls-1{fill:#1e1e1e;}</style></defs><title>Prancheta 2</title><path class="cls-1" d="M5.14,14.6H3.05A.59.59,0,0,1,2.46,14a.6.6,0,0,1,.59-.59H5.14a.6.6,0,0,1,.59.59A.59.59,0,0,1,5.14,14.6Z"/><path class="cls-1" d="M10.35,9.39a.6.6,0,0,1-.59-.59V6.71a.6.6,0,0,1,.59-.59.59.59,0,0,1,.59.59V8.8A.59.59,0,0,1,10.35,9.39Z"/><path class="cls-1" d="M14,10.91a.59.59,0,0,1-.42-1L15.1,8.43a.59.59,0,1,1,.83.84l-1.48,1.47A.54.54,0,0,1,14,10.91Z"/><path class="cls-1" d="M6.67,10.91a.55.55,0,0,1-.42-.17L4.77,9.27a.6.6,0,0,1,0-.84.61.61,0,0,1,.84,0L7.08,9.91a.59.59,0,0,1,0,.83A.54.54,0,0,1,6.67,10.91Z"/><path class="cls-1" d="M7.08,16.09a.48.48,0,0,0,.46-.37v0a3.27,3.27,0,0,1,2.8-5,3.3,3.3,0,0,1,3,2,6,6,0,0,1,.85-.89A4.44,4.44,0,1,0,6.5,16.23,3.77,3.77,0,0,1,7.08,16.09Z"/><g id="_7sQMiF.tif" data-name="7sQMiF.tif"><path class="cls-1" d="M15.69,23.28H7.57a3.61,3.61,0,0,1-.49-7.19.48.48,0,0,0,.46-.37,3.85,3.85,0,0,1,5.09-2.46c.31.13.41,0,.56-.23A5.95,5.95,0,0,1,24,15.69c0,.26.12.36.38.4a3.64,3.64,0,0,1,3.16,3.54,3.6,3.6,0,0,1-3,3.6,3.33,3.33,0,0,1-.63,0h-8.2Zm0-1.23h8.07a2.56,2.56,0,0,0,.67-.05,2.43,2.43,0,0,0,1.83-2.5,2.35,2.35,0,0,0-2.41-2.21c-1.07,0-1.07,0-1.1-1A4.67,4.67,0,0,0,19,11.79a4.78,4.78,0,0,0-5.28,2.74c-.34.79-.26.69-.89.25a2.61,2.61,0,0,0-2.78-.29,2.52,2.52,0,0,0-1.48,2.14c-.06.65-.06.65-.74.66a2.8,2.8,0,0,0-1.15.14,2.39,2.39,0,0,0,.9,4.62Z"/></g></svg>