<svg id="Camada_1" data-name="Camada 1" xmlns="http://www.w3.org/2000/svg" viewBox="0 0 30 30"><defs><style>.cls-1{fill:#1e1e1e;}</style></defs><title>Prancheta 1</title><path class="cls-1" d="M23.78,11c-.26,0-.35-.14-.39-.4a6.05,6.05,0,0,0-11-2.71c-.15.22-.26.37-.57.24a3.91,3.91,0,0,0-5.18,2.5.49.49,0,0,1-.48.38,3.68,3.68,0,0,0,.51,7.32H23.28a3.39,3.39,0,0,0,.64,0A3.66,3.66,0,0,0,27,14.57,3.71,3.71,0,0,0,23.78,11Zm.08,6a2.21,2.21,0,0,1-.68.06H6.69a2.44,2.44,0,0,1-.92-4.71A3,3,0,0,1,7,12.19c.68,0,.68,0,.74-.67A2.55,2.55,0,0,1,9.21,9.34,2.63,2.63,0,0,1,12,9.63c.65.45.57.55.91-.25a4.88,4.88,0,0,1,5.38-2.79,4.76,4.76,0,0,1,3.84,4.54c0,1,0,1,1.12,1.06a2.4,2.4,0,0,1,2.45,2.25A2.45,2.45,0,0,1,23.86,17Z"/><path class="cls-1" d="M9,20.16a.6.6,0,0,0-.26-.81.61.61,0,0,0-.81.26L6.61,22.13a.61.61,0,0,0,.26.81.67.67,0,0,0,.46,0,.64.64,0,0,0,.35-.3Z"/><path class="cls-1" d="M15.44,20.16a.6.6,0,0,0-1.07-.55l-1.29,2.52a.6.6,0,0,0,.27.81.64.64,0,0,0,.45,0,.61.61,0,0,0,.35-.3Z"/><path class="cls-1" d="M11.53,21.94a.59.59,0,0,0-.26-.81.6.6,0,0,0-.8.26L9.18,23.91a.61.61,0,0,0,.26.81.62.62,0,0,0,.46,0,.56.56,0,0,0,.35-.29Z"/><path class="cls-1" d="M18,21.94a.6.6,0,0,0-1.07-.55l-1.28,2.52a.59.59,0,0,0,.26.81.61.61,0,0,0,.46,0,.57.57,0,0,0,.34-.29Z"/><path class="cls-1" d="M21.91,20.16a.6.6,0,1,0-1.07-.55l-1.28,2.52a.6.6,0,0,0,.26.81.67.67,0,0,0,.46,0,.68.68,0,0,0,.35-.3Z"/></svg>