<svg id="Camada_1" data-name="Camada 1" xmlns="http://www.w3.org/2000/svg" viewBox="0 0 30 30"><defs><style>.cls-1{fill:#1e1e1e;}</style></defs><title>Prancheta 3</title><path class="cls-1" d="M15,20.91A5.91,5.91,0,1,1,20.91,15,5.92,5.92,0,0,1,15,20.91Zm0-10.62A4.71,4.71,0,1,0,19.71,15,4.72,4.72,0,0,0,15,10.29Z"/><path class="cls-1" d="M7.86,15.6H5a.6.6,0,0,1,0-1.2H7.86a.6.6,0,1,1,0,1.2Z"/><path class="cls-1" d="M25,15.6H22.14a.6.6,0,0,1,0-1.2H25a.6.6,0,1,1,0,1.2Z"/><path class="cls-1" d="M15,25.6a.6.6,0,0,1-.6-.6V22.14a.6.6,0,1,1,1.2,0V25A.6.6,0,0,1,15,25.6Z"/><path class="cls-1" d="M15,8.46a.6.6,0,0,1-.6-.6V5a.6.6,0,0,1,1.2,0V7.86A.6.6,0,0,1,15,8.46Z"/><path class="cls-1" d="M7.93,22.67a.65.65,0,0,1-.43-.17.61.61,0,0,1,0-.85l2-2a.58.58,0,0,1,.84,0,.59.59,0,0,1,0,.85l-2,2A.61.61,0,0,1,7.93,22.67Z"/><path class="cls-1" d="M20.05,10.55a.58.58,0,0,1-.42-.18.59.59,0,0,1,0-.85l2-2a.6.6,0,0,1,.85.85l-2,2A.58.58,0,0,1,20.05,10.55Z"/><path class="cls-1" d="M22.07,22.67a.61.61,0,0,1-.42-.17l-2-2a.59.59,0,0,1,0-.85.58.58,0,0,1,.84,0l2,2a.61.61,0,0,1,0,.85A.65.65,0,0,1,22.07,22.67Z"/><path class="cls-1" d="M10,10.55a.58.58,0,0,1-.42-.18l-2-2a.6.6,0,0,1,.85-.85l2,2a.59.59,0,0,1,0,.85A.58.58,0,0,1,10,10.55Z"/></svg>